<?xml version="1.0" standalone="no"?>
<!DOCTYPE svg PUBLIC "-//W3C//DTD SVG 20010904//EN"
 "http://www.w3.org/TR/2001/REC-SVG-20010904/DTD/svg10.dtd">
<svg version="1.0" xmlns="http://www.w3.org/2000/svg"
 width="1363.000000pt" height="1221.000000pt" viewBox="0 0 1363.000000 1221.000000"
 preserveAspectRatio="xMidYMid meet">

<g transform="translate(0.000000,1221.000000) scale(0.100000,-0.100000)"
fill="#000000" stroke="none">
<path d="M11085 11173 c-69 -8 -240 -46 -312 -68 -86 -26 -356 -123 -503 -180
-52 -20 -156 -59 -232 -85 -75 -27 -145 -54 -155 -59 -10 -6 -72 -32 -138 -57
-66 -26 -163 -66 -215 -91 -52 -25 -127 -58 -167 -73 -97 -39 -450 -215 -503
-250 -14 -9 -45 -25 -70 -34 -24 -10 -87 -41 -140 -70 -52 -28 -243 -125 -425
-214 -181 -90 -350 -174 -375 -188 -25 -13 -92 -47 -150 -75 -58 -28 -161 -79
-230 -113 -69 -35 -141 -69 -160 -76 -44 -17 -263 -144 -277 -162 -6 -7 -13
-29 -15 -48 l-3 -35 -100 -12 c-55 -7 -163 -17 -240 -22 -77 -6 -178 -19 -225
-30 -47 -10 -132 -22 -189 -25 -71 -4 -127 -14 -180 -32 -80 -27 -110 -44 -75
-44 31 0 128 -35 221 -80 46 -22 97 -43 114 -47 29 -6 65 -35 252 -208 65 -60
98 -124 142 -274 27 -93 27 -97 22 -305 -5 -226 -16 -294 -62 -372 -56 -95
-179 -97 -246 -4 -10 14 -43 111 -73 215 -51 178 -131 390 -175 462 -24 39
-105 79 -268 132 -151 50 -189 66 -236 103 -55 44 -70 79 -65 154 2 34 1 61
-3 58 -4 -2 -18 -30 -30 -62 -20 -50 -23 -75 -23 -207 -1 -134 3 -166 32 -300
23 -103 53 -197 94 -300 33 -82 66 -166 74 -185 7 -19 13 -73 14 -120 0 -47 7
-126 15 -177 8 -51 19 -179 23 -285 7 -154 13 -200 27 -227 26 -51 110 -137
195 -199 41 -30 101 -79 132 -109 66 -62 118 -86 229 -108 45 -8 83 -15 85
-15 2 0 4 -62 4 -138 0 -200 -26 -373 -92 -602 -48 -168 -159 -503 -176 -529
-14 -23 -60 -106 -172 -313 -26 -47 -75 -121 -109 -163 -34 -42 -71 -95 -83
-118 -11 -23 -59 -82 -105 -132 -392 -417 -405 -430 -573 -580 -73 -66 -161
-145 -194 -176 -34 -31 -86 -70 -116 -87 -30 -17 -75 -52 -100 -77 -26 -27
-78 -63 -124 -87 -44 -22 -102 -57 -130 -78 -28 -21 -80 -52 -116 -70 -36 -18
-79 -43 -96 -56 -16 -13 -51 -33 -77 -44 -67 -30 -85 -72 -47 -110 16 -16 33
-19 100 -19 79 0 81 1 152 48 40 26 102 66 138 89 36 23 83 60 105 82 22 23
61 52 86 65 25 13 75 49 110 79 76 65 177 140 312 231 53 36 107 80 120 97 12
17 54 52 94 79 39 27 93 74 120 105 26 31 78 76 114 99 36 24 90 71 120 104
30 34 79 79 109 101 30 21 80 64 110 95 30 31 87 78 125 105 39 26 84 62 100
80 17 18 73 61 125 97 383 258 417 290 460 430 25 82 81 379 115 613 15 102
34 217 42 255 17 84 69 363 78 423 l7 42 137 0 138 0 -4 -57 c-2 -32 -11 -110
-19 -173 -41 -316 -58 -1204 -29 -1520 18 -202 42 -392 56 -442 16 -61 72 -78
108 -32 24 31 26 54 7 109 -12 36 -20 99 -56 458 -14 142 -12 604 5 967 14
299 45 604 62 620 4 4 36 22 71 40 62 32 145 48 249 50 l42 0 -20 -67 c-42
-140 -118 -462 -133 -558 -67 -439 -79 -710 -45 -1029 12 -106 31 -146 71
-146 10 0 18 -4 18 -8 0 -19 -94 -281 -149 -417 -79 -192 -117 -344 -141 -570
-11 -99 -25 -214 -31 -255 -13 -94 -13 -519 0 -586 5 -27 19 -123 31 -214 40
-307 61 -385 146 -555 42 -82 83 -158 91 -167 21 -23 65 -23 86 0 21 24 22 85
1 103 -8 7 -44 71 -79 143 -68 141 -84 205 -120 471 -9 66 -23 165 -32 220
-13 80 -14 148 -10 345 4 135 11 270 17 300 5 30 17 123 25 205 8 83 19 163
23 179 l8 29 36 -44 c33 -40 37 -53 47 -134 16 -145 49 -346 65 -400 8 -27 22
-87 31 -132 28 -144 100 -337 174 -472 38 -69 81 -151 96 -181 15 -30 46 -77
70 -105 23 -27 65 -88 94 -134 28 -46 83 -120 122 -165 38 -44 77 -97 87 -116
41 -84 146 -26 109 61 -8 19 -52 77 -97 129 -45 52 -103 130 -128 173 -25 43
-64 99 -86 124 -23 26 -59 83 -82 127 -22 45 -64 124 -92 177 -59 110 -122
283 -147 409 -9 47 -23 108 -31 135 -8 28 -26 123 -39 213 -29 186 -32 357
-13 574 13 152 7 183 -37 194 -14 3 -25 11 -25 17 0 6 46 57 103 112 80 78
111 116 141 175 21 41 63 107 92 145 69 92 115 170 150 253 15 37 47 98 71
135 64 100 111 198 144 299 16 50 67 175 114 278 47 103 85 193 85 200 0 27
71 222 104 287 31 60 35 65 36 38 0 -16 10 -50 21 -75 11 -25 32 -92 45 -150
14 -58 33 -132 44 -165 18 -55 39 -170 61 -332 10 -78 31 -118 72 -143 59 -36
143 -19 268 54 126 74 179 130 244 257 63 123 134 232 228 348 34 42 82 106
106 142 30 46 63 79 110 111 36 25 93 71 126 101 33 30 107 90 165 133 392
296 414 319 435 447 5 32 9 36 28 33 64 -14 291 -30 422 -30 173 -1 218 9 274
60 73 65 64 141 -28 252 -41 48 -65 87 -75 123 -23 78 -21 96 15 114 54 28
238 65 329 65 47 1 105 5 130 11 25 5 95 14 156 18 60 5 144 14 185 20 40 5
108 15 149 20 108 14 418 68 465 82 74 21 169 77 195 116 21 31 25 48 25 112
0 92 -20 127 -91 161 -54 25 -102 29 -369 34 -104 2 -404 10 -665 17 -549 16
-1246 15 -1535 -1 -110 -6 -321 -15 -470 -20 -148 -5 -331 -14 -405 -19 -74
-6 -220 -15 -324 -21 -104 -6 -272 -19 -374 -30 -102 -11 -187 -18 -190 -16
-9 9 10 84 29 115 19 32 71 61 109 61 24 0 24 -2 1 52 -49 115 -269 337 -471
476 -41 28 -94 70 -117 94 l-42 43 142 2 c244 2 590 38 807 84 110 23 372 67
614 104 144 22 527 99 745 150 89 21 277 102 317 137 45 40 59 86 40 131 -27
65 -126 94 -267 78 -46 -5 -88 -7 -92 -4 -19 12 157 170 274 246 30 20 70 50
89 67 19 17 52 40 73 51 21 11 55 35 75 54 21 18 61 49 89 68 152 102 460 396
500 477 44 88 83 202 83 243 -1 85 -60 165 -138 187 -35 9 -230 12 -297 3z
m270 -153 c21 -17 16 -51 -20 -145 -33 -88 -129 -201 -272 -323 -61 -51 -63
-52 -87 -37 -22 15 -32 15 -108 1 -46 -8 -168 -24 -273 -35 -527 -57 -665 -71
-722 -71 -71 0 -72 3 -53 85 6 29 5 47 -4 66 l-13 27 96 40 c53 23 148 60 211
82 63 23 156 57 205 77 50 19 160 60 245 90 85 30 180 63 210 74 76 27 250 67
340 78 101 13 225 8 245 -9z m-1688 -545 c-3 -33 -16 -74 -31 -98 -38 -66
-254 -245 -362 -300 -27 -14 -67 -38 -89 -53 -55 -38 -171 -102 -225 -124 -25
-11 -110 -48 -190 -84 -80 -36 -146 -62 -148 -57 -4 13 57 140 78 161 29 29
25 67 -10 100 l-30 28 148 75 c81 41 190 97 242 124 52 26 111 55 130 64 19 9
71 34 115 56 44 23 116 55 160 72 44 18 105 45 135 61 80 42 84 41 77 -25z
m1102 -151 c-18 -20 -54 -47 -79 -62 -25 -14 -64 -43 -88 -64 -60 -55 -85 -64
-113 -44 -34 23 -59 20 -135 -18 -38 -19 -112 -51 -164 -71 -52 -20 -122 -49
-155 -65 -33 -16 -125 -57 -205 -90 -79 -34 -149 -65 -155 -70 -5 -4 -62 -27
-125 -50 -63 -23 -165 -62 -226 -87 l-111 -45 -54 31 c-30 16 -74 33 -99 36
-103 14 -103 13 19 71 62 29 135 69 161 88 27 19 73 47 102 62 29 14 71 41 93
58 22 18 69 53 105 78 36 25 94 76 130 112 l64 66 91 0 c49 0 169 9 265 20 96
10 245 26 330 35 85 9 202 22 260 29 58 8 109 14 114 15 6 0 -6 -15 -25 -35z
m-2228 -376 c-57 -130 -81 -175 -106 -198 -15 -14 -47 -52 -70 -85 -24 -33
-64 -76 -89 -94 -26 -19 -53 -45 -61 -57 -8 -12 -58 -60 -112 -107 -89 -76
-173 -127 -209 -127 -23 0 -54 -38 -54 -65 l0 -25 -37 16 c-119 52 -161 66
-274 85 -68 12 -166 24 -217 26 l-94 5 64 39 c34 21 79 44 98 50 19 6 91 40
160 75 69 35 168 84 220 109 52 24 122 59 155 77 33 19 146 75 250 126 105 51
233 115 285 142 52 27 98 50 102 50 4 0 -1 -19 -11 -42z m1700 -43 c-134 -154
-71 -284 133 -273 41 2 72 0 68 -4 -14 -14 -138 -56 -187 -63 -28 -4 -129 -25
-225 -47 -227 -51 -367 -78 -406 -78 -34 0 -133 53 -199 106 l-39 31 84 28
c118 39 522 209 610 255 28 15 175 77 189 79 1 1 -11 -15 -28 -34z m-1511
-311 c0 -19 -17 -74 -37 -121 -34 -78 -43 -89 -90 -120 -29 -18 -59 -46 -67
-62 -17 -32 -35 -35 -281 -46 l-120 -6 50 43 c28 23 82 74 120 113 39 38 87
85 108 103 20 18 44 43 53 57 13 20 25 25 63 26 25 0 75 11 111 24 88 31 90
31 90 -11z m286 -10 c26 -3 70 -23 119 -54 43 -27 101 -57 129 -66 28 -9 63
-27 78 -40 34 -28 38 -26 -134 -54 -70 -11 -196 -34 -279 -51 -83 -16 -153
-28 -155 -27 -2 2 15 42 38 88 22 47 48 115 57 152 l16 67 45 -5 c25 -3 63 -7
86 -10z m-1514 -594 c39 -11 131 -86 248 -201 76 -76 78 -81 111 -294 12 -84
32 -169 49 -212 l28 -72 -42 -5 c-22 -3 -111 -13 -196 -22 -159 -16 -420 -52
-569 -79 -46 -8 -88 -12 -94 -8 -12 7 -2 414 13 518 24 158 106 267 261 345
85 42 124 48 191 30z m4223 -770 c242 -5 501 -15 575 -21 74 -6 212 -11 305
-10 191 2 213 -4 201 -53 -8 -32 -75 -66 -166 -85 -259 -53 -502 -87 -705
-100 -66 -4 -127 -11 -135 -16 -7 -4 -75 -12 -149 -16 -89 -5 -174 -17 -246
-35 -127 -30 -121 -30 -200 -11 -33 8 -159 38 -281 65 -121 28 -245 61 -275
73 -30 11 -74 26 -99 33 -25 6 -44 14 -42 19 1 4 2 41 2 82 l0 74 83 4 c184 7
718 6 1132 -3z m-1360 -77 c-6 -68 -14 -92 -63 -187 -66 -126 -108 -166 -174
-166 -36 0 -46 6 -116 81 -87 93 -190 166 -295 211 -40 16 -106 44 -147 61
l-75 32 45 6 c25 3 155 10 290 14 135 4 292 11 350 15 58 4 125 8 149 8 l43 2
-7 -77z m-1069 -63 c85 -20 242 -77 356 -129 173 -79 284 -181 337 -307 35
-84 59 -170 49 -179 -7 -8 -128 13 -438 76 -135 27 -254 49 -266 49 -18 0 -21
6 -20 42 1 40 -2 44 -61 88 -34 25 -88 62 -120 83 -32 21 -73 48 -91 60 -18
12 -90 60 -161 107 -125 82 -128 85 -105 98 17 9 30 10 43 2 30 -15 63 -12 96
10 43 28 264 29 381 0z m-1265 -85 c35 -78 35 -81 5 -89 -14 -3 -38 -17 -54
-30 l-29 -25 -229 40 c-126 21 -285 48 -353 59 -110 17 -160 30 -120 30 8 0
61 7 119 16 188 28 493 62 563 63 l68 1 30 -65z m602 -46 c34 -18 116 -68 183
-113 67 -44 134 -89 150 -99 16 -9 50 -32 75 -50 25 -17 55 -37 65 -43 19 -12
-89 5 -166 26 -19 5 -84 18 -145 29 -168 31 -346 68 -351 73 -2 3 2 23 10 44
7 22 17 58 20 80 6 35 13 44 49 62 23 11 43 21 45 21 1 1 31 -13 65 -30z
m1974 -78 c65 -22 136 -43 158 -46 45 -8 268 -59 332 -76 l42 -11 -5 -42 c-7
-48 17 -159 46 -215 11 -22 42 -65 70 -97 36 -41 47 -61 40 -68 -18 -18 -255
-19 -419 -2 -83 9 -159 16 -169 16 -10 0 -39 20 -64 45 -25 25 -55 45 -66 45
-12 0 -37 9 -56 21 -31 18 -45 20 -113 14 -43 -4 -95 -14 -117 -21 -21 -8 -53
-14 -71 -14 -32 0 -33 0 -28 44 5 37 -10 108 -33 163 -3 7 6 15 23 19 94 23
168 83 223 183 35 64 49 81 67 81 12 0 76 -18 140 -39z m-3372 -46 c44 -8 204
-35 355 -60 151 -26 331 -56 400 -68 l125 -22 3 -98 c3 -118 -17 -248 -50
-314 -30 -63 -109 -140 -183 -180 -80 -42 -325 -123 -373 -123 -42 0 -208 47
-258 73 -44 23 -109 98 -124 142 -20 62 -5 151 51 298 28 73 53 140 56 150 4
12 -12 44 -44 90 -28 40 -58 87 -68 106 l-17 34 24 -7 c12 -3 59 -13 103 -21z
m1315 -226 c52 -11 151 -31 220 -44 69 -13 198 -40 287 -59 89 -19 205 -42
258 -51 52 -8 207 -37 343 -64 136 -27 268 -53 295 -56 26 -4 47 -11 47 -15 0
-8 -73 -41 -120 -55 -46 -14 -115 -53 -185 -105 -38 -29 -111 -72 -162 -96
-53 -26 -114 -65 -145 -93 -38 -34 -95 -68 -198 -116 -161 -76 -218 -108 -302
-172 -31 -24 -59 -43 -62 -43 -3 0 8 37 25 82 23 64 42 95 83 138 60 63 106
164 106 233 0 48 -26 98 -65 123 -37 24 -131 14 -223 -25 -91 -38 -141 -76
-182 -141 -36 -56 -50 -55 -70 5 -8 25 -8 50 1 95 6 33 10 63 7 65 -2 2 -20
-1 -40 -7 -48 -14 -102 -3 -130 29 -13 14 -32 35 -44 47 -30 30 -44 60 -44 95
0 45 46 159 86 214 40 55 27 54 214 16z m-1559 -365 c9 -11 2 -9 -18 6 -18 13
-33 25 -33 27 0 8 38 -17 51 -33z m-153 -63 c25 -6 40 -38 68 -136 17 -60 19
-288 3 -402 -12 -94 -53 -322 -74 -415 -14 -61 -46 -260 -80 -498 -17 -113
-59 -321 -82 -405 -14 -50 -27 -70 -78 -121 -55 -56 -191 -154 -212 -154 -4 0
-24 21 -43 47 -19 25 -47 55 -62 66 l-28 21 61 114 c39 74 77 168 110 270 187
583 206 690 195 1108 -9 331 -9 367 5 426 12 51 15 53 124 77 48 11 63 11 93
2z m2082 -88 c-1 -34 -37 -99 -92 -162 -50 -56 -62 -79 -108 -210 -29 -80 -74
-186 -101 -236 -26 -49 -66 -146 -88 -215 -63 -192 -64 -196 -136 -350 -37
-80 -80 -184 -96 -232 -31 -96 -82 -203 -137 -288 -19 -30 -52 -93 -72 -140
-40 -94 -91 -178 -153 -255 -60 -74 -61 -75 -32 -16 14 29 48 113 75 185 26
73 83 202 125 287 43 85 91 192 106 238 16 46 62 148 103 226 47 91 94 200
126 297 29 84 69 194 90 243 63 150 97 265 110 368 6 54 18 113 25 130 20 48
65 85 141 117 82 34 114 37 114 13z m-406 -258 c-12 -98 -36 -173 -107 -345
-20 -47 -56 -147 -82 -224 -26 -79 -82 -209 -129 -305 -46 -91 -93 -197 -106
-236 -13 -38 -58 -141 -101 -227 -44 -87 -102 -220 -130 -295 -28 -76 -67
-167 -87 -203 l-36 -64 -10 39 c-6 22 -10 176 -10 345 -1 316 4 369 55 690 21
127 71 339 114 485 13 44 29 99 35 123 7 26 16 42 26 42 9 0 84 22 167 50 162
53 247 97 348 179 35 28 64 49 65 48 1 -1 -4 -47 -12 -102z m-2286 -1818 c23
-23 42 -46 42 -50 0 -3 -14 -14 -31 -22 -16 -9 -48 -32 -70 -52 l-40 -36 -22
21 c-21 21 -21 23 -4 50 10 15 30 51 44 80 15 28 30 52 33 52 3 0 25 -19 48
-43z m1625 -142 c-9 -19 -18 -33 -21 -31 -4 5 26 66 33 66 3 0 -3 -16 -12 -35z
m-1839 -94 c3 -5 -5 -16 -19 -25 -28 -18 -31 -15 -13 14 14 22 24 25 32 11z
m1629 -541 c-8 -72 -9 -75 -36 -78 -26 -3 -27 -1 -21 25 12 50 58 158 61 143
2 -8 0 -49 -4 -90z"/>
<path d="M3056 10164 c-278 -43 -570 -156 -949 -366 -212 -117 -516 -347 -739
-559 -159 -150 -406 -451 -519 -630 -40 -63 -93 -146 -119 -185 -27 -38 -87
-144 -134 -233 -47 -90 -106 -191 -130 -225 -56 -79 -146 -247 -146 -273 0
-23 29 -53 52 -53 35 0 51 16 88 90 21 42 65 115 96 161 32 46 95 154 140 240
45 85 121 216 169 290 48 74 103 157 121 185 29 47 94 130 250 324 80 99 324
334 459 441 157 125 357 264 472 327 314 175 546 271 790 329 110 26 132 28
328 27 l210 0 100 -33 c55 -18 114 -40 130 -49 17 -8 83 -64 148 -125 127
-119 125 -116 235 -362 62 -141 62 -140 -3 -164 -31 -12 -78 -32 -106 -47 -49
-24 -51 -24 -65 -7 -7 10 -14 21 -14 26 0 4 -19 28 -41 52 -34 37 -55 49 -111
66 -61 19 -88 21 -231 17 -160 -4 -164 -5 -287 -47 -206 -71 -322 -134 -560
-307 -178 -129 -405 -338 -506 -464 -37 -47 -93 -113 -125 -147 -31 -34 -94
-115 -139 -180 -44 -65 -110 -159 -145 -209 -35 -49 -87 -137 -116 -195 -28
-57 -73 -141 -101 -186 -76 -127 -123 -237 -177 -416 -28 -90 -75 -237 -106
-327 -30 -91 -55 -174 -55 -186 0 -43 57 -69 92 -41 14 11 121 321 198 577 38
123 80 219 148 333 28 45 75 132 105 192 30 61 83 148 116 195 34 47 98 137
141 200 44 63 114 153 156 200 42 47 90 104 107 128 46 63 330 328 427 398 47
33 117 83 155 111 158 116 421 230 586 254 96 14 252 6 302 -14 30 -13 97 -97
97 -123 0 -6 -38 -38 -84 -72 -112 -83 -160 -132 -202 -209 -20 -35 -67 -103
-105 -150 -99 -126 -124 -179 -174 -375 -81 -320 -86 -352 -91 -593 -5 -208
-4 -226 20 -335 14 -63 39 -188 57 -277 l31 -162 25 10 c35 13 68 11 110 -6
48 -20 40 -24 -27 -15 -64 9 -90 -2 -120 -53 -52 -85 3 -262 140 -452 32 -44
82 -102 110 -130 29 -27 81 -92 117 -143 36 -52 83 -105 106 -121 23 -16 73
-60 110 -98 60 -61 66 -71 53 -83 -21 -17 -20 -40 1 -40 23 0 208 95 268 139
76 55 246 195 282 233 62 65 233 284 260 333 24 42 28 62 28 125 0 62 -4 81
-23 107 -45 64 -158 70 -258 13 -70 -39 -61 -23 18 33 133 93 150 99 214 72
25 -10 40 -26 52 -55 9 -22 20 -40 23 -40 9 0 80 96 113 152 15 25 64 80 110
121 45 42 93 93 107 114 97 148 160 237 207 293 62 73 151 248 179 350 34 126
16 843 -26 1027 -36 157 -50 180 -160 261 -42 30 -98 75 -125 100 -28 24 -66
52 -87 62 -43 22 -250 85 -329 100 -95 18 -294 13 -404 -9 -54 -12 -99 -21
-101 -21 -2 0 -6 12 -10 28 -3 15 -41 104 -83 197 l-76 170 -135 136 c-90 90
-153 145 -186 162 -74 37 -229 84 -318 96 -105 15 -301 12 -411 -5z m1948
-1045 c35 -28 58 -74 105 -216 57 -169 71 -259 71 -437 -1 -480 -34 -647 -200
-1006 -32 -69 -71 -154 -87 -190 -38 -83 -69 -119 -152 -177 -36 -26 -93 -69
-126 -96 -80 -66 -127 -87 -199 -87 -79 0 -128 16 -177 58 -49 42 -69 85 -69
144 1 58 23 102 120 238 45 63 94 140 110 170 15 30 48 82 73 115 67 91 96
156 134 304 32 129 34 146 48 470 22 500 34 582 91 658 30 39 56 55 109 64 79
13 121 10 149 -12z m-839 -463 c91 -38 99 -170 15 -220 -89 -52 -204 32 -183
135 7 36 54 86 86 92 40 8 47 7 82 -7z m-428 -40 c105 -115 -63 -282 -176
-177 -61 57 -48 147 29 199 50 34 104 26 147 -22z m-257 -1688 c49 -16 73 -32
104 -67 23 -25 102 -108 177 -185 134 -139 169 -185 169 -226 0 -31 18 -24 79
28 31 27 95 77 143 111 48 33 89 65 93 70 3 5 38 22 78 37 39 14 110 47 157
73 73 39 93 46 142 46 70 0 87 -14 99 -81 16 -86 -5 -130 -145 -306 -124 -156
-197 -227 -360 -350 -65 -49 -220 -138 -241 -138 -3 0 -5 9 -5 20 0 11 -6 20
-12 20 -7 0 -42 30 -78 66 -36 36 -78 73 -93 82 -16 10 -58 59 -94 110 -37 51
-91 117 -121 145 -119 114 -249 344 -259 457 -3 33 1 54 16 78 25 39 58 42
151 10z"/>
<path d="M11383 6316 c-23 -8 -64 -30 -90 -49 -59 -43 -241 -155 -344 -212
-42 -23 -103 -63 -135 -88 -33 -25 -103 -66 -158 -91 -54 -26 -133 -70 -175
-98 -42 -29 -120 -71 -173 -94 -54 -24 -112 -54 -130 -67 -18 -14 -74 -45
-124 -70 -50 -25 -115 -67 -145 -92 -30 -26 -86 -69 -125 -95 -101 -69 -155
-142 -193 -262 -23 -72 -27 -161 -11 -220 13 -44 82 -115 148 -151 26 -14 83
-32 127 -41 126 -24 351 -83 387 -102 18 -9 72 -41 120 -71 l87 -54 30 -97
c16 -53 36 -125 45 -159 9 -35 24 -80 35 -101 40 -79 168 -167 262 -179 23 -3
114 0 203 7 154 12 167 15 291 62 72 27 141 56 154 65 43 28 81 76 100 129 11
27 34 75 52 105 59 100 130 250 144 307 35 136 45 271 55 692 11 492 13 474
-75 705 -101 263 -120 291 -218 319 -65 19 -88 19 -144 2z"/>
<path d="M8785 5552 c-16 -10 -55 -43 -85 -73 -49 -49 -95 -100 -256 -288 -26
-30 -52 -68 -59 -85 -7 -17 -27 -48 -44 -70 -17 -21 -31 -42 -31 -47 0 -25
-128 -120 -213 -157 -44 -20 -67 -45 -67 -76 0 -24 37 -56 63 -56 30 0 159 70
223 121 27 21 60 44 74 50 83 39 151 69 158 69 23 0 219 83 230 97 30 40 0 93
-53 93 -15 0 -68 -16 -117 -36 -49 -19 -93 -34 -99 -32 -10 3 23 46 164 207
91 105 145 158 179 175 12 6 29 23 37 38 14 25 14 29 -5 55 -26 34 -59 39 -99
15z"/>
<path d="M9257 4846 c-103 -62 -180 -96 -264 -116 -130 -31 -185 -66 -226
-145 -24 -48 -26 -115 -9 -315 16 -174 22 -201 83 -323 59 -120 72 -135 150
-177 70 -37 145 -44 195 -17 48 25 103 86 136 152 17 33 59 101 93 150 35 50
76 126 94 172 28 73 31 94 31 186 l0 104 -48 74 c-41 64 -100 167 -149 262 -8
15 -18 27 -22 27 -4 0 -33 -15 -64 -34z"/>
<path d="M11100 3736 c-3 -2 -55 -10 -115 -16 -63 -6 -140 -22 -181 -36 -68
-23 -79 -24 -358 -24 -439 0 -557 -20 -630 -108 -91 -111 -99 -326 -20 -540
28 -76 39 -90 127 -170 86 -78 125 -90 322 -102 184 -12 338 -12 560 -2 190 9
218 18 255 76 11 19 29 38 40 41 31 10 133 126 168 192 54 102 93 274 99 438
5 135 4 141 -19 175 -32 48 -88 74 -173 78 -38 2 -72 1 -75 -2z"/>
<path d="M10285 2490 c-58 -25 -109 -36 -290 -60 -286 -39 -372 -68 -430 -144
-30 -39 -49 -124 -40 -174 4 -20 10 -113 15 -207 l8 -170 -39 -197 c-21 -108
-40 -202 -41 -209 -7 -29 36 -17 98 28 252 183 332 236 394 261 31 13 87 47
125 77 39 30 106 80 150 112 44 31 121 98 170 148 50 49 116 112 148 138 75
63 118 151 125 253 4 70 4 72 -29 108 -37 40 -80 52 -224 62 -62 4 -78 1 -140
-26z m-645 -772 c23 -39 26 -55 6 -39 -14 12 -39 71 -30 71 2 0 13 -15 24 -32z
m28 -105 c25 -15 64 -30 86 -33 l41 -5 -98 -70 c-54 -39 -112 -80 -129 -93
-17 -12 -33 -20 -36 -17 -2 2 8 69 24 149 l28 144 19 -24 c10 -13 39 -36 65
-51z m199 31 c6 -19 -90 -28 -134 -12 l-38 13 50 6 c70 9 118 6 122 -7z"/>
</g>
</svg>
